<svg viewBox="0 0 512 512" xml:space="preserve" xmlns="http://www.w3.org/2000/svg"><path d="M257 0C115.614 0 1 114.614 1 256s114.614 256 256 256 256-114.614 256-256S398.386 0 257 0zm0 484.002c-125.92 0-228-102.08-228-228.002S131.08 28 257 28s228 102.08 228 228-102.08 228.002-228 228.002z" fill="#bababa" class="fill-000000"></path><path d="M257 40C137.708 40 41 136.706 41 256s96.706 216 216 216 216-96.706 216-216c0-119.292-96.708-216-216-216zm76 115.098-33.354.016c-26.15 0-31.214 12.486-31.214 30.808v28.404h62.372l-8.122 63.286h-54.25V416h-65.046V277.612H149v-63.286h54.388v-34.672C203.388 125.494 236.31 96 284.4 96c23.034 0 42.832 1.724 48.6 2.494v56.604z" fill="#bababa" class="fill-000000"></path></svg>