<svg xmlns="http://www.w3.org/2000/svg" xmlns:xlink="http://www.w3.org/1999/xlink" viewBox="0,0,256,256" width="48px" height="48px" fill-rule="nonzero"><defs><linearGradient x1="32.749" y1="20.849" x2="56.09" y2="44.19" gradientUnits="userSpaceOnUse" id="color-1"><stop offset="0" stop-color="#ffffff"></stop><stop offset="1" stop-color="#b1b1b1" stop-opacity="0.5098"></stop></linearGradient><linearGradient x1="-5.399" y1="17.572" x2="26.746" y2="49.718" gradientUnits="userSpaceOnUse" id="color-2"><stop offset="0" stop-color="#ffffff"></stop><stop offset="1" stop-color="#b1b1b1" stop-opacity="0.5098"></stop></linearGradient><linearGradient x1="11.789" y1="5.239" x2="44.6" y2="38.05" gradientUnits="userSpaceOnUse" id="color-3"><stop offset="0" stop-color="#ffffff"></stop><stop offset="1" stop-color="#b1b1b1" stop-opacity="0.5098"></stop></linearGradient><linearGradient x1="1.499" y1="7.199" x2="23.547" y2="29.247" gradientUnits="userSpaceOnUse" id="color-4"><stop offset="0" stop-color="#ffffff"></stop><stop offset="1" stop-color="#b1b1b1" stop-opacity="0.5098"></stop></linearGradient><linearGradient x1="32.986" y1="10.095" x2="47.252" y2="24.361" gradientUnits="userSpaceOnUse" id="color-5"><stop offset="0" stop-color="#ffffff"></stop><stop offset="1" stop-color="#b1b1b1" stop-opacity="0.5098"></stop></linearGradient></defs><g fill="none" fill-rule="nonzero" stroke="none" stroke-width="1" stroke-linecap="butt" stroke-linejoin="miter" stroke-miterlimit="10" stroke-dasharray="" stroke-dashoffset="0" font-family="none" font-weight="none" font-size="none" text-anchor="none" style="mix-blend-mode: normal"><g transform="scale(5.33333,5.33333)"><path d="M45,16.2l-10,7.5v16.3h7c1.657,0 3,-1.343 3,-3z" fill="url(#color-1)"></path><path d="M3,16.2l10,7.5v16.3h-7c-1.657,0 -3,-1.343 -3,-3z" fill="url(#color-2)"></path><path d="M35,11.2l-11,8.25l-11,-8.25v12.5l11,8.25l11,-8.25z" fill="url(#color-3)"></path><path d="M3,12.298v3.902l10,7.5v-12.5l-3.124,-2.341c-0.744,-0.558 -1.648,-0.859 -2.578,-0.859v0c-2.374,0 -4.298,1.924 -4.298,4.298z" fill="url(#color-4)"></path><path d="M45,12.298v3.902l-10,7.5v-12.5l3.124,-2.341c0.744,-0.558 1.648,-0.859 2.578,-0.859v0c2.374,0 4.298,1.924 4.298,4.298z" fill="url(#color-5)"></path></g></g></svg>