<svg viewBox="0 0 512 512" xml:space="preserve" xmlns="http://www.w3.org/2000/svg"><path d="M319.59 230.632h36.902V331.81c0 13.066-10.624 23.68-23.68 23.68H181.188c-13.062 0-23.686-10.614-23.686-23.68V230.632h36.892a67.206 67.206 0 0 0-4.976 25.366c0 37.256 30.31 67.586 67.58 67.586 37.266 0 67.576-30.33 67.576-67.586.002-8.97-1.798-17.528-4.984-25.366zm-62.596 68.862c23.974 0 43.506-19.512 43.506-43.496 0-9.472-3.086-18.216-8.236-25.366-7.906-10.952-20.748-18.136-35.266-18.136s-27.36 7.184-35.276 18.136c-5.15 7.148-8.226 15.894-8.23 25.366.002 23.984 19.514 43.496 43.502 43.496zm96.18-139.424h-43.946v43.946h43.946V160.07zM473.002 256c0 119.294-96.708 216-216.002 216S41 375.294 41 256 137.708 40 257 40c119.294 0 216.002 96.706 216.002 216zm-92.426-75.82c-.006-26.338-21.426-47.754-47.764-47.754H181.188c-26.338 0-47.764 21.422-47.764 47.76v151.628c0 26.338 21.426 47.76 47.764 47.76h151.628c26.338 0 47.76-21.422 47.76-47.76V180.18zM513 256c0 141.386-114.616 256-256 256S1 397.384 1 256 115.616 0 257 0s256 114.614 256 256zm-28 0c0-125.922-102.08-228-228-228S29 130.078 29 256s102.08 228.002 228 228.002S485 381.92 485 256z" fill="#bababa" class="fill-000000"></path></svg>