<svg viewBox="0 0 32 32" xml:space="preserve" xmlns="http://www.w3.org/2000/svg"><path d="M16 3.006C8.836 3.006 3.007 8.835 3.007 16c0 7.164 5.829 12.993 12.993 12.993S28.994 23.164 28.994 16c0-7.165-5.83-12.994-12.994-12.994zm-3.957 18.921H8.937v-9.348h3.107v9.348zM10.49 11.303h-.02c-1.043 0-1.717-.718-1.717-1.616 0-.917.695-1.615 1.758-1.615 1.063 0 1.717.698 1.738 1.615-.001.898-.676 1.616-1.759 1.616zm12.757 10.624H20.14v-5.001c0-1.256-.449-2.113-1.574-2.113-.858 0-1.369.578-1.593 1.136-.082.2-.102.479-.102.757v5.221h-3.107s.041-8.471 0-9.348h3.107v1.324c.412-.637 1.151-1.544 2.8-1.544 2.044 0 3.577 1.336 3.577 4.208v5.36z" fill="#bababa" class="fill-1a1718"></path><path d="M16 0C7.164 0 0 7.163 0 16c0 8.836 7.164 16 16 16s16-7.164 16-16c0-8.837-7.164-16-16-16zm0 29.493C8.547 29.493 2.507 23.452 2.507 16 2.507 8.547 8.547 2.506 16 2.506S29.494 8.547 29.494 16c0 7.452-6.041 13.493-13.494 13.493z" fill="#bababa" class="fill-1a1718"></path></svg>