<svg width="60" height="23" viewBox="0 0 60 23" fill="none" xmlns="http://www.w3.org/2000/svg">
<path fill-rule="evenodd" clip-rule="evenodd" d="M13.4218 5.12964C13.4173 5.00296 13.4151 4.93962 13.4071 4.88522C13.3447 4.45845 13.0157 4.11976 12.591 4.04501C12.5368 4.03548 12.4736 4.03141 12.3471 4.02326L11.3884 3.96149C11.262 3.95334 11.1988 3.94927 11.1438 3.95177C10.713 3.97137 10.3432 4.26505 10.2266 4.68032C10.2117 4.73323 10.2013 4.79573 10.1807 4.92075V4.92075C10.1416 5.15685 10.122 5.2749 10.0963 5.35135C9.88602 5.97534 9.14053 6.22933 8.59304 5.86349C8.52597 5.81866 8.43838 5.73705 8.2632 5.57383V5.57383C8.17036 5.48733 8.12394 5.44409 8.07982 5.41123C7.73395 5.15362 7.2619 5.14677 6.9087 5.39423C6.86365 5.4258 6.81601 5.46766 6.72075 5.55139L5.9994 6.18541C5.9041 6.26918 5.85644 6.31106 5.81934 6.35171C5.52864 6.67022 5.47486 7.13921 5.68591 7.51526C5.71284 7.56325 5.74978 7.61484 5.82366 7.71802V7.71802C5.96315 7.91284 6.0329 8.01026 6.06877 8.08261C6.36115 8.67244 6.0137 9.37898 5.36805 9.50751C5.28884 9.52328 5.16912 9.52751 4.9297 9.53597V9.53597C4.80293 9.54045 4.73954 9.54269 4.6851 9.55065C4.2584 9.61307 3.91977 9.94201 3.84499 10.3667C3.83545 10.4209 3.83138 10.4842 3.82322 10.6108L3.76146 11.5693C3.75331 11.6958 3.74923 11.7591 3.75174 11.814C3.77136 12.2448 4.06501 12.6145 4.48023 12.7312C4.53317 12.7461 4.59571 12.7564 4.72078 12.7771V12.7771C4.95701 12.8162 5.07513 12.8358 5.15162 12.8616C5.77553 13.0718 6.02947 13.8172 5.66372 14.3647C5.61888 14.4318 5.53726 14.5194 5.37403 14.6946V14.6946C5.28761 14.7874 5.24439 14.8337 5.21154 14.8778C4.95391 15.2237 4.94706 15.6958 5.19455 16.049C5.2261 16.0941 5.26795 16.1417 5.35165 16.2369L5.98575 16.9583C6.06947 17.0536 6.11134 17.1012 6.15197 17.1383C6.47049 17.4291 6.93952 17.4828 7.3156 17.2718C7.36357 17.2448 7.41513 17.2079 7.51826 17.1341V17.1341C7.71299 16.9946 7.81036 16.9249 7.88269 16.8891C8.47255 16.5966 9.17916 16.9441 9.30765 17.5898C9.32341 17.669 9.32764 17.7887 9.3361 18.028V18.028C9.34057 18.1547 9.34281 18.2181 9.35077 18.2725C9.41318 18.6992 9.74215 19.0379 10.1669 19.1127C10.2211 19.1222 10.2843 19.1263 10.4109 19.1344L11.3693 19.1962C11.4959 19.2043 11.5592 19.2084 11.6142 19.2059C12.045 19.1863 12.4147 18.8926 12.5313 18.4775C12.5462 18.4245 12.5566 18.3619 12.5773 18.2367V18.2367C12.6164 18.0005 12.6359 17.8824 12.6617 17.8059C12.8719 17.1819 13.6174 16.928 14.1649 17.2938C14.232 17.3386 14.3195 17.4202 14.4946 17.5833V17.5833C14.5873 17.6697 14.6337 17.7129 14.6778 17.7457C15.0237 18.0034 15.4958 18.0103 15.8491 17.7627C15.8941 17.7312 15.9417 17.6894 16.0368 17.6057L16.7585 16.9714C16.8536 16.8878 16.9012 16.846 16.9382 16.8055C17.2291 16.4869 17.2829 16.0177 17.0717 15.6416C17.0448 15.5937 17.0079 15.5422 16.9342 15.4392V15.4392C16.7949 15.2447 16.7253 15.1475 16.6895 15.0752C16.3968 14.4853 16.7444 13.7785 17.3903 13.6501C17.4694 13.6343 17.5889 13.6301 17.828 13.6217V13.6217C17.9547 13.6172 18.018 13.615 18.0724 13.607C18.4992 13.5446 18.8379 13.2156 18.9126 12.7908C18.9222 12.7367 18.9262 12.6735 18.9344 12.547L18.9961 11.5884C19.0043 11.4619 19.0084 11.3986 19.0059 11.3437C18.9862 10.9128 18.6926 10.5431 18.2774 10.4264C18.2244 10.4116 18.1619 10.4012 18.0368 10.3805V10.3805C17.8006 10.3414 17.6825 10.3219 17.6061 10.2961C16.9821 10.0858 16.7282 9.3404 17.094 8.79294C17.1388 8.72584 17.2204 8.63826 17.3836 8.46309V8.46309C17.47 8.37035 17.5132 8.32398 17.5461 8.27989C17.8037 7.934 17.8106 7.46189 17.563 7.10867C17.5315 7.06364 17.4897 7.01603 17.406 6.92082L16.7718 6.19928C16.6881 6.1041 16.6463 6.05651 16.6057 6.01945C16.2872 5.72863 15.818 5.67484 15.4419 5.88599C15.394 5.9129 15.3425 5.94979 15.2395 6.02356V6.02356C15.0449 6.16288 14.9476 6.23255 14.8753 6.26839C14.2854 6.56094 13.5787 6.21339 13.4502 5.56758C13.4345 5.48845 13.4303 5.36885 13.4218 5.12964V5.12964Z" fill="url(#paint0_linear_5496_26)"/>
<path d="M9.26278 15H7.28551L10.2983 6.27273H12.6761L15.6847 15H13.7074L11.5213 8.26705H11.4531L9.26278 15ZM9.1392 11.5696H13.8097V13.0099H9.1392V11.5696ZM21.1232 13.1165L21.1275 10.9389H21.3917L23.4883 8.45455H25.5721L22.7553 11.7443H22.3249L21.1232 13.1165ZM19.4783 15V6.27273H21.2937V15H19.4783ZM23.5692 15L21.6431 12.1491L22.8533 10.8665L25.6957 15H23.5692ZM29.1506 15.1278C28.4886 15.1278 27.9162 14.9872 27.4332 14.706C26.9531 14.4219 26.5824 14.027 26.321 13.5213C26.0597 13.0128 25.929 12.4233 25.929 11.7528C25.929 11.0767 26.0597 10.4858 26.321 9.98011C26.5824 9.47159 26.9531 9.0767 27.4332 8.79545C27.9162 8.51136 28.4886 8.36932 29.1506 8.36932C29.8125 8.36932 30.3835 8.51136 30.8636 8.79545C31.3466 9.0767 31.7188 9.47159 31.9801 9.98011C32.2415 10.4858 32.3722 11.0767 32.3722 11.7528C32.3722 12.4233 32.2415 13.0128 31.9801 13.5213C31.7188 14.027 31.3466 14.4219 30.8636 14.706C30.3835 14.9872 29.8125 15.1278 29.1506 15.1278ZM29.1591 13.7216C29.4602 13.7216 29.7116 13.6364 29.9134 13.4659C30.1151 13.2926 30.267 13.0568 30.3693 12.7585C30.4744 12.4602 30.527 12.1207 30.527 11.7401C30.527 11.3594 30.4744 11.0199 30.3693 10.7216C30.267 10.4233 30.1151 10.1875 29.9134 10.0142C29.7116 9.84091 29.4602 9.75426 29.1591 9.75426C28.8551 9.75426 28.5994 9.84091 28.392 10.0142C28.1875 10.1875 28.0327 10.4233 27.9276 10.7216C27.8253 11.0199 27.7741 11.3594 27.7741 11.7401C27.7741 12.1207 27.8253 12.4602 27.9276 12.7585C28.0327 13.0568 28.1875 13.2926 28.392 13.4659C28.5994 13.6364 28.8551 13.7216 29.1591 13.7216ZM33.5526 15V8.45455H35.3125V9.59659H35.3807C35.5 9.19034 35.7003 8.88352 35.9815 8.67614C36.2628 8.46591 36.5866 8.3608 36.9531 8.3608C37.044 8.3608 37.142 8.36648 37.2472 8.37784C37.3523 8.3892 37.4446 8.40483 37.5241 8.42472V10.0355C37.4389 10.0099 37.321 9.98722 37.1705 9.96733C37.0199 9.94744 36.8821 9.9375 36.7571 9.9375C36.4901 9.9375 36.2514 9.99574 36.0412 10.1122C35.8338 10.2259 35.669 10.3849 35.5469 10.5895C35.4276 10.794 35.3679 11.0298 35.3679 11.2969V15H33.5526ZM41.141 15.1278C40.4677 15.1278 39.8881 14.9915 39.4023 14.7188C38.9194 14.4432 38.5472 14.054 38.2859 13.5511C38.0245 13.0455 37.8938 12.4474 37.8938 11.7571C37.8938 11.0838 38.0245 10.4929 38.2859 9.98438C38.5472 9.47585 38.9151 9.07955 39.3896 8.79545C39.8668 8.51136 40.4265 8.36932 41.0685 8.36932C41.5004 8.36932 41.9023 8.43892 42.2745 8.57812C42.6495 8.71449 42.9762 8.92045 43.2546 9.19602C43.5359 9.47159 43.7546 9.81818 43.9109 10.2358C44.0671 10.6506 44.1452 11.1364 44.1452 11.6932V12.1918H38.6183V11.0668H42.4364C42.4364 10.8054 42.3796 10.5739 42.266 10.3722C42.1523 10.1705 41.9947 10.0128 41.793 9.89915C41.5941 9.78267 41.3626 9.72443 41.0984 9.72443C40.8228 9.72443 40.5785 9.78835 40.3654 9.91619C40.1552 10.0412 39.9904 10.2102 39.8711 10.4233C39.7518 10.6335 39.6907 10.8679 39.6879 11.1264V12.196C39.6879 12.5199 39.7475 12.7997 39.8668 13.0355C39.989 13.2713 40.1609 13.4531 40.3825 13.581C40.604 13.7088 40.8668 13.7727 41.1708 13.7727C41.3725 13.7727 41.5572 13.7443 41.7248 13.6875C41.8924 13.6307 42.0359 13.5455 42.1552 13.4318C42.2745 13.3182 42.3654 13.179 42.4279 13.0142L44.1069 13.125C44.0217 13.5284 43.8469 13.8807 43.5827 14.1818C43.3214 14.4801 42.9833 14.7131 42.5685 14.8807C42.1566 15.0455 41.6808 15.1278 41.141 15.1278ZM47.7418 15.1065C47.2447 15.1065 46.7944 14.9787 46.391 14.723C45.9904 14.4645 45.6722 14.0852 45.4364 13.5852C45.2035 13.0824 45.087 12.4659 45.087 11.7358C45.087 10.9858 45.2077 10.3622 45.4492 9.86506C45.6907 9.36506 46.0117 8.99148 46.4123 8.74432C46.8157 8.49432 47.2575 8.36932 47.7376 8.36932C48.104 8.36932 48.4094 8.43182 48.6538 8.55682C48.9009 8.67898 49.0998 8.83239 49.2504 9.01705C49.4038 9.19886 49.5202 9.37784 49.5998 9.55398H49.6552V6.27273H51.4663V15H49.6765V13.9517H49.5998C49.5146 14.1335 49.3938 14.3139 49.2376 14.4929C49.0842 14.669 48.8839 14.8153 48.6367 14.9318C48.3924 15.0483 48.0941 15.1065 47.7418 15.1065ZM48.3171 13.6619C48.6097 13.6619 48.8569 13.5824 49.0586 13.4233C49.2631 13.2614 49.4194 13.0355 49.5273 12.7457C49.6381 12.456 49.6935 12.1165 49.6935 11.7273C49.6935 11.3381 49.6396 11 49.5316 10.7131C49.4237 10.4261 49.2674 10.2045 49.0629 10.0483C48.8583 9.89205 48.6097 9.81392 48.3171 9.81392C48.0188 9.81392 47.7674 9.89489 47.5629 10.0568C47.3583 10.2187 47.2035 10.4432 47.0984 10.7301C46.9933 11.017 46.9407 11.3494 46.9407 11.7273C46.9407 12.108 46.9933 12.4446 47.0984 12.7372C47.2063 13.027 47.3612 13.2543 47.5629 13.419C47.7674 13.581 48.0188 13.6619 48.3171 13.6619ZM55.9418 15.1278C55.2685 15.1278 54.6889 14.9915 54.2031 14.7188C53.7202 14.4432 53.348 14.054 53.0866 13.5511C52.8253 13.0455 52.6946 12.4474 52.6946 11.7571C52.6946 11.0838 52.8253 10.4929 53.0866 9.98438C53.348 9.47585 53.7159 9.07955 54.1903 8.79545C54.6676 8.51136 55.2273 8.36932 55.8693 8.36932C56.3011 8.36932 56.7031 8.43892 57.0753 8.57812C57.4503 8.71449 57.777 8.92045 58.0554 9.19602C58.3366 9.47159 58.5554 9.81818 58.7116 10.2358C58.8679 10.6506 58.946 11.1364 58.946 11.6932V12.1918H53.419V11.0668H57.2372C57.2372 10.8054 57.1804 10.5739 57.0668 10.3722C56.9531 10.1705 56.7955 10.0128 56.5938 9.89915C56.3949 9.78267 56.1634 9.72443 55.8991 9.72443C55.6236 9.72443 55.3793 9.78835 55.1662 9.91619C54.956 10.0412 54.7912 10.2102 54.6719 10.4233C54.5526 10.6335 54.4915 10.8679 54.4886 11.1264V12.196C54.4886 12.5199 54.5483 12.7997 54.6676 13.0355C54.7898 13.2713 54.9616 13.4531 55.1832 13.581C55.4048 13.7088 55.6676 13.7727 55.9716 13.7727C56.1733 13.7727 56.358 13.7443 56.5256 13.6875C56.6932 13.6307 56.8366 13.5455 56.956 13.4318C57.0753 13.3182 57.1662 13.179 57.2287 13.0142L58.9077 13.125C58.8224 13.5284 58.6477 13.8807 58.3835 14.1818C58.1222 14.4801 57.7841 14.7131 57.3693 14.8807C56.9574 15.0455 56.4815 15.1278 55.9418 15.1278Z" fill="white"/>
<defs>
<linearGradient id="paint0_linear_5496_26" x1="12.0656" y1="0.920492" x2="10.692" y2="22.2372" gradientUnits="userSpaceOnUse">
<stop offset="0.21" stop-color="#EEE8D7"/>
<stop offset="0.26" stop-color="#FFE08C"/>
<stop offset="0.55" stop-color="#352E18"/>
<stop offset="1" stop-color="#D9A106"/>
</linearGradient>
</defs>
</svg>
