<svg viewBox="0 0 32 32" xml:space="preserve" xmlns="http://www.w3.org/2000/svg"><path d="M16 3.006C8.836 3.006 3.006 8.836 3.006 16S8.836 28.993 16 28.993 28.994 23.164 28.994 16 23.164 3.006 16 3.006zm7.907 8.176c-.069.116-.426.523-.806.896-.644.64-.679.71-.679 1.245 0 .826-.391 2.548-.783 3.49-.726 1.769-2.279 3.596-3.833 4.516-2.187 1.291-5.099 1.618-7.551.861-.817-.257-2.221-.908-2.221-1.024 0-.035.426-.082.944-.093a6.464 6.464 0 0 0 3.085-.861l.621-.372-.714-.244c-1.013-.349-1.922-1.152-2.152-1.909-.069-.245-.046-.257.598-.257l.667-.012-.564-.268c-.668-.338-1.278-.907-1.577-1.49-.219-.419-.494-1.478-.414-1.559.023-.035.265.035.541.128.794.291.898.221.437-.268-.863-.884-1.128-2.199-.714-3.445l.198-.557.76.756c1.554 1.525 3.384 2.432 5.479 2.7l.576.07-.035-.57c-.103-1.478.806-2.828 2.244-3.351.529-.186 1.428-.209 2.015-.047.231.07.667.303.978.512l.564.385.621-.198c.346-.104.806-.279 1.013-.396.196-.105.369-.163.369-.128 0 .198-.426.873-.783 1.245-.484.523-.346.57.633.221.587-.198.599-.198.483.024z" fill="#bababa" class="fill-1a1718"></path><path d="M16 0C7.164 0 0 7.164 0 16s7.164 16 16 16 16-7.164 16-16S24.836 0 16 0zm0 29.493C8.547 29.493 2.506 23.452 2.506 16 2.506 8.547 8.547 2.506 16 2.506S29.494 8.547 29.494 16c0 7.452-6.041 13.493-13.494 13.493z" fill="#bababa" class="fill-1a1718"></path></svg>